<svg width="24" height="24" viewBox="0 0 24 24" fill="none" xmlns="http://www.w3.org/2000/svg">
<mask id="path-1-inside-1_3_2" fill="white">
<path fill-rule="evenodd" clip-rule="evenodd" d="M6 5C5.44772 5 5 5.44772 5 6V19.7183L12.5 10.625L20 19.7183V6C20 5.44772 19.5523 5 19 5H6Z"/>
</mask>
<path d="M5 19.7183H4.5V21.1103L5.38573 20.0364L5 19.7183ZM12.5 10.625L12.8857 10.3069L12.5 9.83919L12.1143 10.3069L12.5 10.625ZM20 19.7183L19.6143 20.0364L20.5 21.1103V19.7183H20ZM5.5 6C5.5 5.72386 5.72386 5.5 6 5.5V4.5C5.17157 4.5 4.5 5.17157 4.5 6H5.5ZM5.5 19.7183V6H4.5V19.7183H5.5ZM5.38573 20.0364L12.8857 10.9431L12.1143 10.3069L4.61427 19.4001L5.38573 20.0364ZM12.1143 10.9431L19.6143 20.0364L20.3857 19.4001L12.8857 10.3069L12.1143 10.9431ZM19.5 6V19.7183H20.5V6H19.5ZM19 5.5C19.2761 5.5 19.5 5.72386 19.5 6H20.5C20.5 5.17157 19.8284 4.5 19 4.5V5.5ZM6 5.5H19V4.5H6V5.5Z" fill="white" mask="url(#path-1-inside-1_3_2)"/>
</svg>
