<svg width="24" height="24" viewBox="0 0 24 24" fill="none" xmlns="http://www.w3.org/2000/svg">
<mask id="path-2-inside-1_3_2" fill="white">
<path fill-rule="evenodd" clip-rule="evenodd" d="M9 7C8.44772 7 8 7.44772 8 8V14.8497L12 10L16 14.8497V8C16 7.44772 15.5523 7 15 7H9Z"/>
</mask>
<path d="M8 14.8497H7.5V16.2418L8.38573 15.1679L8 14.8497ZM12 10L12.3857 9.68186L12 9.21419L11.6143 9.68186L12 10ZM16 14.8497L15.6143 15.1679L16.5 16.2418V14.8497H16ZM8.5 8C8.5 7.72386 8.72386 7.5 9 7.5V6.5C8.17157 6.5 7.5 7.17157 7.5 8H8.5ZM8.5 14.8497V8H7.5V14.8497H8.5ZM8.38573 15.1679L12.3857 10.3181L11.6143 9.68186L7.61427 14.5316L8.38573 15.1679ZM11.6143 10.3181L15.6143 15.1679L16.3857 14.5316L12.3857 9.68186L11.6143 10.3181ZM15.5 8V14.8497H16.5V8H15.5ZM15 7.5C15.2761 7.5 15.5 7.72386 15.5 8H16.5C16.5 7.17157 15.8284 6.5 15 6.5V7.5ZM9 7.5H15V6.5H9V7.5Z" fill="white" mask="url(#path-2-inside-1_3_2)"/>
<rect x="0.5" y="0.5" width="23" height="23" stroke="white"/>
</svg>
