<svg width="24" height="24" viewBox="0 0 24 24" fill="none" xmlns="http://www.w3.org/2000/svg">
<path d="M8 8C8 7.44772 8.44772 7 9 7H15C15.5523 7 16 7.44772 16 8V15H8V8Z" fill="#010101"/>
<path d="M12 10L16.3301 15.25H7.66987L12 10Z" fill="white"/>
<mask id="path-3-inside-1_2_20" fill="white">
<path d="M21 10C21 11.1819 20.7672 12.3522 20.3149 13.4442C19.8626 14.5361 19.1997 15.5282 18.364 16.364C17.5282 17.1997 16.5361 17.8626 15.4442 18.3149C14.3522 18.7672 13.1819 19 12 19C10.8181 19 9.64778 18.7672 8.55585 18.3149C7.46392 17.8626 6.47177 17.1997 5.63604 16.364C4.80031 15.5282 4.13738 14.5361 3.68508 13.4442C3.23279 12.3522 3 11.1819 3 10L12 10H21Z"/>
</mask>
<path d="M21 10C21 11.1819 20.7672 12.3522 20.3149 13.4442C19.8626 14.5361 19.1997 15.5282 18.364 16.364C17.5282 17.1997 16.5361 17.8626 15.4442 18.3149C14.3522 18.7672 13.1819 19 12 19C10.8181 19 9.64778 18.7672 8.55585 18.3149C7.46392 17.8626 6.47177 17.1997 5.63604 16.364C4.80031 15.5282 4.13738 14.5361 3.68508 13.4442C3.23279 12.3522 3 11.1819 3 10L12 10H21Z" stroke="black" stroke-width="0.6" mask="url(#path-3-inside-1_2_20)"/>
</svg>
