<svg width="24" height="24" viewBox="0 0 24 24" fill="none" xmlns="http://www.w3.org/2000/svg">
<rect x="6.91667" y="11" width="9.16667" height="7" fill="#010101"/>
<path d="M11.5 5L16.2631 10.25H6.73686L11.5 5Z" fill="#010101"/>
<path d="M12 14H15V18H12V14Z" fill="white"/>
<rect x="8" y="6" width="2" height="4" fill="black"/>
<mask id="path-5-inside-1_2_2" fill="white">
<path d="M21 13C21 14.1819 20.7672 15.3522 20.3149 16.4442C19.8626 17.5361 19.1997 18.5282 18.364 19.364C17.5282 20.1997 16.5361 20.8626 15.4442 21.3149C14.3522 21.7672 13.1819 22 12 22C10.8181 22 9.64778 21.7672 8.55585 21.3149C7.46392 20.8626 6.47177 20.1997 5.63604 19.364C4.80031 18.5282 4.13738 17.5361 3.68508 16.4442C3.23279 15.3522 3 14.1819 3 13L12 13H21Z"/>
</mask>
<path d="M21 13C21 14.1819 20.7672 15.3522 20.3149 16.4442C19.8626 17.5361 19.1997 18.5282 18.364 19.364C17.5282 20.1997 16.5361 20.8626 15.4442 21.3149C14.3522 21.7672 13.1819 22 12 22C10.8181 22 9.64778 21.7672 8.55585 21.3149C7.46392 20.8626 6.47177 20.1997 5.63604 19.364C4.80031 18.5282 4.13738 17.5361 3.68508 16.4442C3.23279 15.3522 3 14.1819 3 13L12 13H21Z" stroke="black" stroke-width="0.6" mask="url(#path-5-inside-1_2_2)"/>
</svg>
